<svg width="84" height="84" viewBox="0 0 84 84" fill="none" xmlns="http://www.w3.org/2000/svg">
<path d="M42 0C33.6932 0 25.5729 2.46326 18.6661 7.07827C11.7592 11.6933 6.37596 18.2528 3.19708 25.9273C0.0181979 33.6018 -0.813542 42.0466 0.807037 50.1938C2.42762 58.341 6.42773 65.8247 12.3015 71.6985C18.1753 77.5723 25.659 81.5724 33.8062 83.193C41.9534 84.8135 50.3982 83.9818 58.0727 80.8029C65.7472 77.624 72.3067 72.2408 76.9217 65.3339C81.5367 58.4271 84 50.3068 84 42C84 30.8609 79.575 20.178 71.6985 12.3015C63.822 4.42499 53.1391 0 42 0ZM42 77.5384C34.9712 77.5384 28.1002 75.4541 22.2559 71.5491C16.4116 67.6441 11.8566 62.0938 9.16676 55.6C6.47694 49.1062 5.77316 41.9606 7.14442 35.0668C8.51568 28.173 11.9004 21.8407 16.8705 16.8705C21.8407 11.9004 28.173 8.51566 35.0668 7.1444C41.9606 5.77314 49.1062 6.47692 55.6 9.16674C62.0938 11.8566 67.6441 16.4116 71.5491 22.2559C75.4542 28.1002 77.5385 34.9711 77.5385 42C77.5385 51.4254 73.7942 60.4647 67.1295 67.1295C60.4647 73.7942 51.4254 77.5384 42 77.5384Z" fill="white"/>
<path d="M61.3843 29.077H45.2305V25.8463C45.2277 25.2543 45.0624 24.6745 44.7526 24.1701C44.4428 23.6658 44.0004 23.2562 43.4736 22.9862C42.9469 22.7161 42.356 22.596 41.7657 22.6389C41.1753 22.6817 40.608 22.886 40.1258 23.2293L17.5105 39.3832C17.0967 39.6827 16.7599 40.076 16.5277 40.5309C16.2954 40.9858 16.1743 41.4893 16.1743 42.0001C16.1743 42.5109 16.2954 43.0143 16.5277 43.4692C16.7599 43.9241 17.0967 44.3175 17.5105 44.617L40.1258 60.7709C40.6648 61.1782 41.3242 61.3942 41.9997 61.3847C42.5154 61.3786 43.0232 61.2572 43.4858 61.0293C44.0126 60.7564 44.4541 60.3438 44.7618 59.8365C45.0696 59.3293 45.2317 58.7472 45.2305 58.1539V54.9232H61.3843C62.2412 54.9232 63.0629 54.5828 63.6688 53.9769C64.2747 53.371 64.6151 52.5493 64.6151 51.6924V32.3078C64.6151 31.4509 64.2747 30.6292 63.6688 30.0233C63.0629 29.4174 62.2412 29.077 61.3843 29.077ZM58.1535 48.4616H41.9997C41.1428 48.4616 40.3211 48.802 39.7152 49.4079C39.1093 50.0138 38.7689 50.8355 38.7689 51.6924V51.8862L24.9412 42.0001L38.7689 32.1139V32.3078C38.7689 33.1646 39.1093 33.9864 39.7152 34.5923C40.3211 35.1982 41.1428 35.5386 41.9997 35.5386H58.1535V48.4616Z" fill="white"/>
</svg>
